<?xml version="1.0" encoding="UTF-8"?>
<svg id="Layer_2" data-name="Layer 2" xmlns="http://www.w3.org/2000/svg" viewBox="0 0 479.78 49.94">
  <defs>
    <style>
      .cls-1 {
        fill: #fff;
      }
    </style>
  </defs>
  <g id="Layer_1-2" data-name="Layer 1">
    <g>
      <polygon class="cls-1" points="421.29 0 373.25 0 373.25 12.71 390.9 12.71 390.9 49.94 403.63 49.94 403.63 12.71 421.29 12.71 421.29 0"/>
      <path class="cls-1" d="M364.72,49.94V0h-49.96V49.94h49.96Zm-12.73-37.23v24.42h-24.5V12.71h24.5Z"/>
      <path class="cls-1" d="M479.78,0h-49.96V49.94h49.96V0Zm-12.73,12.71v24.42h-24.5V12.71h24.5Z"/>
      <polygon class="cls-1" points="304.21 0 304.21 49.94 291.48 49.94 291.48 12.71 278.91 12.71 278.91 49.94 265.98 49.94 265.98 12.71 253.26 12.71 253.26 49.94 240.53 49.94 240.53 0 304.21 0"/>
      <path class="cls-1" d="M110.5,0H60.87V49.94h12.73v-12.81h24.17v12.81h12.73V0Zm-12.73,24.95h-24.17V12.71h24.17v12.24Z"/>
      <path class="cls-1" d="M180.23,49.94h12.73v-12.81h24.17v12.81h12.73V0h-49.63V49.94Zm36.9-25h-24.17V12.71h24.17v12.24Z"/>
      <polygon class="cls-1" points="37.35 32.8 37.35 49.94 50.08 49.94 50.08 0 37.35 0 37.35 17.22 12.73 0 0 0 0 49.94 12.73 49.94 12.73 15.53 37.35 32.8"/>
      <polygon class="cls-1" points="156.25 49.94 134.07 34.44 134.07 49.94 121.34 49.94 121.34 0 134.07 0 134.07 15.75 156.65 0 169.76 0 169.77 12.37 160.97 12.37 160.25 12.87 142.92 24.95 160.63 37.49 169.77 37.49 169.77 49.94 156.25 49.94"/>
    </g>
  </g>
</svg>